<!-- @license lucide-static v0.577.0 - ISC -->
<svg
  class="lucide lucide-github"
  xmlns="http://www.w3.org/2000/svg"
  width="24"
  height="24"
  viewBox="0 0 24 24"
  fill="none"
  stroke="url(#sklong-icon-gradient)"
  stroke-width="2"
  stroke-linecap="round"
  stroke-linejoin="round"
>
  <defs>
    <linearGradient id="sklong-icon-gradient" x1="50%" y1="0%" x2="50%" y2="100%">
      <stop offset="0%" stop-color="#FAD0F8" />
      <stop offset="20%" stop-color="#FAB316" />
      <stop offset="40%" stop-color="#FAB316" />
      <stop offset="60%" stop-color="#A0666F" />
      <stop offset="80%" stop-color="#0E5CF1" />
      <stop offset="100%" stop-color="#0E5CF1" />
    </linearGradient>
  </defs>
  <path d="M15 22v-4a4.8 4.8 0 0 0-1-3.5c3 0 6-2 6-5.5.08-1.25-.27-2.48-1-3.5.28-1.15.28-2.35 0-3.5 0 0-1 0-3 1.5-2.64-.5-5.36-.5-8 0C6 2 5 2 5 2c-.3 1.15-.3 2.35 0 3.5A5.403 5.403 0 0 0 4 9c0 3.5 3 5.5 6 5.5-.39.49-.68 1.05-.85 1.65-.17.6-.22 1.23-.15 1.85v4" />
  <path d="M9 18c-4.51 2-5-2-7-2" />
</svg>
